<?xml version="1.0" encoding="utf-8"?>
<!-- Generator: Adobe Illustrator 27.0.0, SVG Export Plug-In . SVG Version: 6.00 Build 0)  -->
<svg version="1.1" id="Capa_1" xmlns="http://www.w3.org/2000/svg" xmlns:xlink="http://www.w3.org/1999/xlink" x="0px" y="0px"
	 viewBox="0 0 551.19 109.46" style="enable-background:new 0 0 551.19 109.46;" xml:space="preserve">
<style type="text/css">
	.st0{fill:#FFFFFF;}
	.st1{fill:#3AC1B7;}
</style>
<g>
	<g>
		<path class="st0" d="M157.31,16.01v58.2h-5.89V43.55c0-5.95,0.17-11.69,0.52-17.24l-11.87,32.39h-6.5l-12.04-32.39
			c0.4,5.37,0.61,11.09,0.61,17.15v30.75h-5.8v-58.2h7.28l13.16,36.46l13.16-36.46H157.31z"/>
		<path class="st0" d="M190.14,74.21l-3.55-16.28h-15.59l-3.55,16.28h-6.15l13.17-58.2h8.66l13.16,58.2H190.14z M172.12,52.56h13.25
			l-6.67-30.57L172.12,52.56z"/>
		<path class="st0" d="M222.1,16.01v5.46h-11.26v52.75h-6.24V21.47h-11.26v-5.46H222.1z"/>
		<path class="st0" d="M227.12,16.01h6.15v58.2h-6.15V16.01z"/>
		<path class="st0" d="M267.83,74.21l-3.55-16.28h-15.59l-3.55,16.28h-6.15l13.17-58.2h8.66l13.17,58.2H267.83z M249.81,52.56h13.25
			l-6.67-30.57L249.81,52.56z"/>
		<path class="st0" d="M277.87,27.79c0-3.81,1.27-6.8,3.81-8.96c2.54-2.17,6.11-3.25,10.7-3.25s8.47,0.49,11.65,1.47v5.89
			c-3-1.1-6.67-1.65-11-1.65c-5.95,0-8.92,2.25-8.92,6.76v4.16c0,2.02,0.39,3.61,1.17,4.76c0.78,1.16,2.09,2.25,3.94,3.29
			l10.05,5.63c4.68,2.54,7.02,6.38,7.02,11.52v4.68c0,3.98-1.36,7.07-4.07,9.27c-2.71,2.19-6.63,3.29-11.74,3.29
			s-9.17-0.58-12.17-1.73v-5.89c3.41,1.27,7.28,1.91,11.61,1.91c6.81,0,10.22-2.4,10.22-7.19V58.1c0-1.91-0.35-3.41-1.04-4.5
			c-0.69-1.1-1.94-2.14-3.73-3.12l-9.96-5.46c-5.02-2.71-7.54-6.76-7.54-12.13V27.79z"/>
		<path class="st0" d="M331.4,16.01h14.12c4.56,0,8.04,1.18,10.44,3.55c2.4,2.37,3.59,5.54,3.59,9.53v12.04
			c0,4.04-1.18,7.23-3.55,9.57c-2.37,2.34-5.86,3.51-10.48,3.51h-7.97v20.01h-6.15V16.01z M353.4,29.44c0-5.31-2.74-7.97-8.23-7.97
			h-7.62v27.28h7.62c5.48,0,8.23-2.63,8.23-7.88V29.44z"/>
		<path class="st0" d="M365.09,28.92c0-4.1,1.24-7.42,3.73-9.96c2.48-2.54,6.13-3.81,10.96-3.81c4.82,0,8.47,1.27,10.96,3.81
			c2.48,2.54,3.72,5.86,3.72,9.96V61.4c0,4.1-1.24,7.41-3.72,9.92c-2.48,2.51-6.15,3.77-11,3.77s-8.5-1.26-10.96-3.77
			c-2.45-2.51-3.68-5.82-3.68-9.92V28.92z M388.3,29c0-5.49-2.84-8.23-8.53-8.23c-5.69,0-8.53,2.74-8.53,8.23v32.22
			c0,5.54,2.84,8.31,8.53,8.31c5.69,0,8.53-2.77,8.53-8.31V29z"/>
		<path class="st0" d="M400.34,16.01h6.15v52.83h17.67v5.37h-23.82V16.01z"/>
		<path class="st0" d="M428.84,16.01h25.2v5.46h-19.06v20.7h16.63v5.46h-16.63v21.13h19.06v5.46h-25.2V16.01z"/>
		<path class="st0" d="M486.78,16.01v5.46h-11.26v52.75h-6.24V21.47h-11.26v-5.46H486.78z"/>
		<path class="st0" d="M518.82,16.01v5.46h-11.26v52.75h-6.24V21.47h-11.26v-5.46H518.82z"/>
		<path class="st0" d="M521.25,28.92c0-4.1,1.24-7.42,3.73-9.96c2.48-2.54,6.13-3.81,10.96-3.81c4.82,0,8.47,1.27,10.96,3.81
			c2.48,2.54,3.72,5.86,3.72,9.96V61.4c0,4.1-1.24,7.41-3.72,9.92c-2.48,2.51-6.15,3.77-11,3.77s-8.5-1.26-10.96-3.77
			c-2.45-2.51-3.68-5.82-3.68-9.92V28.92z M544.46,29c0-5.49-2.84-8.23-8.53-8.23c-5.69,0-8.53,2.74-8.53,8.23v32.22
			c0,5.54,2.84,8.31,8.53,8.31c5.69,0,8.53-2.77,8.53-8.31V29z"/>
	</g>
	<g>
		<path class="st0" d="M127.79,106.19l-0.07-7.03V85.95h1.74v23.16h-2.29c-4.43-11.22-7.07-17.94-7.93-20.17l0.07,7.02v13.15h-1.7
			V85.95h2.26C124.87,98.7,127.51,105.45,127.79,106.19z"/>
		<path class="st0" d="M141.91,85.95h9.6v1.57h-7.86v9.15h6.85v1.57h-6.85v9.32h7.86v1.57h-9.6V85.95z"/>
		<path class="st0" d="M162.39,90.68c0-3.27,2.02-4.9,6.05-4.9c1.39,0,2.74,0.19,4.03,0.56v1.7c-1.37-0.44-2.77-0.66-4.21-0.66
			c-2.76,0-4.14,1.1-4.14,3.3v13.91c0,2.09,1.19,3.13,3.58,3.13c1.65,0,2.86-0.28,3.65-0.83v-8.87h1.74v9.91
			c-1.53,0.9-3.21,1.36-5.03,1.36s-3.22-0.37-4.21-1.11c-0.99-0.74-1.48-1.94-1.48-3.58V90.68z"/>
		<path class="st0" d="M185.03,90.92c0-1.58,0.46-2.86,1.39-3.84c0.93-0.99,2.31-1.48,4.14-1.48c1.83,0,3.21,0.49,4.14,1.48
			c0.93,0.99,1.39,2.27,1.39,3.84v13.21c0,1.58-0.46,2.86-1.39,3.84c-0.93,0.99-2.31,1.48-4.14,1.48c-1.83,0-3.21-0.49-4.14-1.48
			c-0.93-0.99-1.39-2.27-1.39-3.84V90.92z M194.35,90.92c0-2.5-1.26-3.76-3.79-3.76c-2.53,0-3.79,1.25-3.79,3.76v13.21
			c0,2.5,1.26,3.76,3.79,3.76c2.53,0,3.79-1.25,3.79-3.76V90.92z"/>
		<path class="st0" d="M207.84,90.47c0-3.13,1.96-4.7,5.88-4.7c1.32,0,2.63,0.19,3.93,0.56v1.63c-1.32-0.39-2.69-0.59-4.1-0.59
			s-2.43,0.26-3.04,0.78s-0.92,1.29-0.92,2.31v14.12c0,1.02,0.31,1.79,0.92,2.31c0.61,0.52,1.64,0.78,3.08,0.78
			c1.44,0,2.82-0.2,4.14-0.59v1.63c-1.16,0.37-2.49,0.56-4,0.56c-3.92,0-5.88-1.57-5.88-4.7V90.47z"/>
		<path class="st0" d="M228.95,85.95h1.74v23.16h-1.74V85.95z"/>
		<path class="st0" d="M242.79,90.92c0-1.58,0.46-2.86,1.39-3.84c0.93-0.99,2.31-1.48,4.14-1.48c1.83,0,3.21,0.49,4.14,1.48
			c0.93,0.99,1.39,2.27,1.39,3.84v13.21c0,1.58-0.46,2.86-1.39,3.84c-0.93,0.99-2.31,1.48-4.14,1.48c-1.83,0-3.21-0.49-4.14-1.48
			c-0.93-0.99-1.39-2.27-1.39-3.84V90.92z M252.11,90.92c0-2.5-1.26-3.76-3.79-3.76c-2.53,0-3.79,1.25-3.79,3.76v13.21
			c0,2.5,1.26,3.76,3.79,3.76c2.53,0,3.79-1.25,3.79-3.76V90.92z"/>
		<path class="st0" d="M264.39,90.43c0-1.46,0.48-2.6,1.44-3.43c0.96-0.82,2.32-1.24,4.07-1.24c1.75,0,3.23,0.17,4.43,0.52v1.67
			c-1.11-0.39-2.55-0.59-4.31-0.59c-2.6,0-3.89,1-3.89,2.99v1.98c0,1.53,0.71,2.68,2.12,3.44l4.07,2.26
			c1.88,1.02,2.82,2.55,2.82,4.59v1.81c0,1.53-0.51,2.72-1.51,3.56c-1.01,0.85-2.47,1.27-4.38,1.27c-1.91,0-3.48-0.22-4.71-0.66
			v-1.67c1.37,0.49,2.86,0.73,4.49,0.73c2.92,0,4.38-1.08,4.38-3.23v-1.7c0-0.81-0.14-1.46-0.43-1.95
			c-0.29-0.49-0.82-0.94-1.58-1.36l-4.07-2.23c-1.95-1.07-2.92-2.65-2.92-4.76V90.43z"/>
		<path class="st0" d="M300.03,85.95h1.74v23.16h-1.74V85.95z"/>
		<path class="st0" d="M324.41,106.19l-0.07-7.03V85.95h1.74v23.16h-2.29c-4.43-11.22-7.07-17.94-7.93-20.17l0.07,7.02v13.15h-1.7
			V85.95h2.26C321.49,98.7,324.13,105.45,324.41,106.19z"/>
		<path class="st0" d="M354.22,85.95v23.16h-1.67V95.75l0.1-6.89l-5.18,13.98h-2.23l-5.22-13.98c0.09,2.18,0.14,4.46,0.14,6.85
			v13.39h-1.63V85.95h2.29l5.53,15.27l5.53-15.27H354.22z"/>
		<path class="st0" d="M366.32,90.92c0-1.58,0.46-2.86,1.39-3.84c0.93-0.99,2.31-1.48,4.14-1.48c1.83,0,3.21,0.49,4.14,1.48
			c0.93,0.99,1.39,2.27,1.39,3.84v13.21c0,1.58-0.46,2.86-1.39,3.84c-0.93,0.99-2.31,1.48-4.14,1.48c-1.83,0-3.21-0.49-4.14-1.48
			c-0.93-0.99-1.39-2.27-1.39-3.84V90.92z M375.64,90.92c0-2.5-1.26-3.76-3.79-3.76c-2.53,0-3.79,1.25-3.79,3.76v13.21
			c0,2.5,1.26,3.76,3.79,3.76c2.53,0,3.79-1.25,3.79-3.76V90.92z"/>
		<path class="st0" d="M400.43,91.16v1.88c0,2.2-0.87,3.66-2.61,4.38c1.88,0.67,2.82,2.17,2.82,4.49v1.98
			c0,1.58-0.46,2.84-1.39,3.79c-0.93,0.95-2.31,1.43-4.14,1.43h-5.63V85.95h5.42c1.83,0,3.21,0.48,4.14,1.43
			C399.97,88.32,400.43,89.59,400.43,91.16z M394.9,87.51h-3.69v9.18h3.69c2.53,0,3.79-1.22,3.79-3.65v-1.88
			C398.69,88.73,397.43,87.51,394.9,87.51z M398.9,103.89v-1.98c0-2.43-1.26-3.65-3.79-3.65h-3.89v9.29h3.89
			C397.64,107.54,398.9,106.33,398.9,103.89z"/>
		<path class="st0" d="M412.74,85.95h1.74v23.16h-1.74V85.95z"/>
		<path class="st0" d="M426.93,85.95h1.74v21.6h7.27v1.57h-9.01V85.95z"/>
		<path class="st0" d="M445.95,85.95h1.74v23.16h-1.74V85.95z"/>
		<path class="st0" d="M469.78,109.11l-1.56-6.78h-6.61l-1.57,6.78h-1.81l5.42-23.16h2.5l5.43,23.16H469.78z M461.95,100.76h5.91
			l-2.96-12.83L461.95,100.76z"/>
		<path class="st0" d="M487.23,99.55h-3.37v9.56h-1.74V85.95h5.11c1.83,0,3.21,0.48,4.14,1.43c0.93,0.95,1.39,2.21,1.39,3.79v3.16
			c0,2.46-1,4.06-2.99,4.8l3.65,9.98h-1.91l-3.44-9.6C487.88,99.53,487.6,99.55,487.23,99.55z M483.86,97.91h3.37
			c2.53,0,3.79-1.19,3.79-3.58v-3.16c0-2.43-1.26-3.65-3.79-3.65h-3.37V97.91z"/>
		<path class="st0" d="M505,85.95h1.74v23.16H505V85.95z"/>
		<path class="st0" d="M518.85,90.92c0-1.58,0.46-2.86,1.39-3.84c0.93-0.99,2.31-1.48,4.14-1.48c1.83,0,3.21,0.49,4.14,1.48
			c0.93,0.99,1.39,2.27,1.39,3.84v13.21c0,1.58-0.46,2.86-1.39,3.84c-0.93,0.99-2.31,1.48-4.14,1.48c-1.83,0-3.21-0.49-4.14-1.48
			c-0.93-0.99-1.39-2.27-1.39-3.84V90.92z M528.17,90.92c0-2.5-1.26-3.76-3.79-3.76s-3.79,1.25-3.79,3.76v13.21
			c0,2.5,1.26,3.76,3.79,3.76s3.79-1.25,3.79-3.76V90.92z"/>
		<path class="st0" d="M540.44,90.43c0-1.46,0.48-2.6,1.44-3.43c0.96-0.82,2.32-1.24,4.07-1.24c1.75,0,3.23,0.17,4.43,0.52v1.67
			c-1.11-0.39-2.55-0.59-4.31-0.59c-2.6,0-3.89,1-3.89,2.99v1.98c0,1.53,0.71,2.68,2.12,3.44l4.07,2.26
			c1.88,1.02,2.82,2.55,2.82,4.59v1.81c0,1.53-0.51,2.72-1.51,3.56c-1.01,0.85-2.47,1.27-4.38,1.27c-1.91,0-3.48-0.22-4.71-0.66
			v-1.67c1.37,0.49,2.86,0.73,4.49,0.73c2.92,0,4.38-1.08,4.38-3.23v-1.7c0-0.81-0.14-1.46-0.43-1.95
			c-0.29-0.49-0.82-0.94-1.58-1.36l-4.07-2.23c-1.95-1.07-2.92-2.65-2.92-4.76V90.43z"/>
	</g>
	<g>
		<path class="st1" d="M52.08,103.73L0,73.66v0.47c0,3.28,1.75,6.31,4.59,7.95l46.13,26.63c0.83,0.48,1.86,0.48,2.69,0L72.64,97.6
			c2.05-1.18,3.32-3.37,3.32-5.74v-1.94L52.08,103.73z"/>
		<g>
			<path class="st1" d="M87.54,36.92v23.13c0,1.76-0.94,3.38-2.46,4.25l-9.12,5.23V43.61l-11.49,6.63v46.37l11.49-6.63v-7.06
				L93.85,72.6c3.21-1.85,5.18-5.27,5.18-8.98V32.99c0-0.86-0.11-1.71-0.32-2.52L87.54,36.92z"/>
			<path class="st1" d="M75.96,39.17V27.01l9.14,5.27c0.44,0.25,0.82,0.58,1.16,0.94l10.84-6.26c-0.85-1.18-1.94-2.2-3.24-2.95
				L70.44,10.5c-2.65-1.53-5.97,0.38-5.97,3.44V45.8L75.96,39.17z"/>
		</g>
		<g>
			<polygon class="st0" points="0,27.31 0,73.68 11.49,80.3 11.49,33.94 			"/>
			<polygon class="st0" points="52.09,57.39 46.35,54.07 46.35,100.42 52.09,103.73 57.83,100.41 57.83,54.07 			"/>
			<path class="st0" d="M11.77,29.67l11.5-6.64l0,13.28l11.49,6.63l0-26.54l11.59-6.69v39.92l5.74,3.32l5.74-3.32l0-46.55l0,0
				c-7.11-4.1-15.86-4.1-22.97,0L0.29,23.04L11.77,29.67z"/>
			<polygon class="st0" points="23.27,40.75 23.27,87.11 34.76,93.74 34.76,47.38 			"/>
		</g>
	</g>
	<g>
		<path class="st1" d="M82.75,91.53c0-1.57,0.32-2.73,0.96-3.5c0.64-0.77,1.78-1.15,3.42-1.15s2.77,0.38,3.4,1.14
			s0.93,1.93,0.93,3.49c0,1.57-0.31,2.73-0.95,3.49c-0.63,0.76-1.77,1.14-3.42,1.14c-1.65,0-2.78-0.38-3.41-1.13
			C83.06,94.26,82.75,93.1,82.75,91.53z M84.35,94.24c0.22,0.34,0.55,0.58,0.99,0.72c0.44,0.14,1.02,0.21,1.75,0.21
			s1.31-0.07,1.76-0.21c0.44-0.14,0.78-0.38,1-0.72c0.22-0.34,0.37-0.71,0.44-1.1c0.07-0.39,0.1-0.94,0.1-1.62s-0.04-1.23-0.1-1.63
			c-0.07-0.4-0.21-0.77-0.44-1.11c-0.22-0.34-0.55-0.58-0.99-0.72c-0.44-0.14-1.02-0.21-1.75-0.21c-0.73,0-1.32,0.07-1.77,0.21
			c-0.44,0.14-0.77,0.38-0.99,0.73c-0.21,0.35-0.35,0.72-0.42,1.11c-0.06,0.39-0.09,0.94-0.09,1.62s0.03,1.23,0.09,1.62
			S84.12,93.9,84.35,94.24z M85.47,88.73h1.56c1.29,0,1.93,0.57,1.93,1.7c0,0.75-0.24,1.26-0.71,1.54l0.94,2.27h-1.12l-0.75-2.02
			c-0.07,0.01-0.17,0.02-0.31,0.02h-0.5v2h-1.04V88.73z M86.51,91.36h0.42c0.39,0,0.66-0.06,0.81-0.19
			c0.15-0.12,0.23-0.37,0.23-0.74c0-0.37-0.07-0.6-0.21-0.7c-0.14-0.1-0.37-0.14-0.71-0.14h-0.54V91.36z"/>
	</g>
</g>
</svg>
