<?xml version="1.0" encoding="utf-8"?>
<!-- Generator: Adobe Illustrator 27.0.0, SVG Export Plug-In . SVG Version: 6.00 Build 0)  -->
<svg version="1.1" id="Capa_1" xmlns="http://www.w3.org/2000/svg" xmlns:xlink="http://www.w3.org/1999/xlink" x="0px" y="0px"
	 viewBox="0 0 688 502.6" style="enable-background:new 0 0 688 502.6;" xml:space="preserve">
<style type="text/css">
	.st0{fill:#9CFF5C;}
	.st1{fill:#3F3D56;}
	.st2{fill:#FFFFFF;}
	.st3{fill:#FFB6B6;}
	.st4{fill:#2F2E41;}
	.st5{fill:#E6E6E6;}
	.st6{fill:#6C63FF;}
</style>
<path class="st0" d="M454.1,263.4c0.6,0.6,0.5,1.6-0.1,2.1c-0.6,0.5-1.5,0.5-2,0c-12.3-10.5-24.5-21-36.8-31.5c0,0,0,0,0,0
	c-0.9-0.6-1.7-1.3-2.4-2.1c-6.4-0.7-12.3-3.3-18.7-3.3c-6.6,0-13,1.7-19.4,3.1c-22.4,5-46.2,6.9-68.9,3.4
	c-7.2-1.1-14.5-4.6-18.2-11.3c-1.8-3.2-3.1-7.2-4.4-10.6c-1.3-3.3-0.8-7.5-2.1-10.2c-1.3-13.7-2.9-30.2,2-43.4
	c13.2-35,56.2-34.6,87.3-30.9c18.9,2.3,38.3,2.4,56.6,7.2c5.7,1.5,11.8,2.6,16.8,5.8c5.3,3.4,5.4,9.5,9.2,14.3
	c4.6,6,7.3,13.3,7.5,20.9c0.7,16.1-6.6,30.8-10.6,46C446.5,236.3,444.6,252.3,454.1,263.4z"/>
<path class="st1" d="M416.6,235.6c12.4,10.7,24.9,21.3,37.3,32c0.6,0.6,1.6,0.5,2.1-0.1c0.5-0.6,0.5-1.5,0-2
	c-9.5-11.2-7.6-27.1-4.1-40.3c4-15.2,11.3-29.9,10.6-46c-0.2-7.6-2.9-14.9-7.5-20.9c-4.2-5-9.5-9-15.5-11.6
	c-13.8-6.4-29.4-7.9-44.4-9.6c-18.3-2-36.6-2.8-55-2.4c-15.4,0.3-33.5,0.6-45.5,11.7c-11,10.1-12.5,26.1-12.4,40.1
	c0.1,8.1,0.2,16.5,2.2,24.5c1.8,7.5,5.8,14.8,12.9,18.5c6.8,3.6,14.9,3.6,22.5,3.6c9.3,0,18.5-0.7,27.7-2c18.3-2.4,36.5-6.3,55-7.4
	c4.5-0.3,9.1-0.4,13.6-0.3c1.9,0,1.9-3,0-3c-18-0.4-35.8,2.7-53.5,5.5c-17.1,2.7-34.6,5.3-52,3.9c-3.8-0.2-7.6-1-11-2.6
	c-3.4-1.6-6.2-4.1-8.3-7.3c-4.5-7-5.4-15.9-5.8-24.1c-0.4-7.1-0.4-14.2,0.2-21.3c0.7-6.9,2.3-13.9,5.9-19.8c4.3-6.9,11-12,18.6-14.8
	c7.9-2.9,16.1-2.1,24.2-1.4c9.5,0.8,19-0.1,28.4-0.6c8.5-0.4,16.9,1.8,25.2,2.2c14.4,0.7,29.5,2.4,43.3,6.6c6.2,1.9,11.9,4.9,16.9,9
	c5.3,4.4,8.9,10.5,10.4,17.2c3.4,15.5-3.4,30.9-7.9,45.4c-4,12.9-7.5,28-2,41c1.3,3,3,5.8,5.1,8.3l2.1-2.1
	c-12.4-10.7-24.9-21.3-37.3-32C417.3,232.2,415.1,234.3,416.6,235.6z"/>
<path class="st2" d="M363.6,165.8h-45.2c-0.9,0-1.6-0.7-1.6-1.6s0.7-1.6,1.6-1.6c0,0,0,0,0,0h45.2c0.9,0,1.6,0.7,1.6,1.6
	C365.2,165.1,364.5,165.8,363.6,165.8z"/>
<path class="st2" d="M363.6,199.2h-45.2c-0.9,0-1.6-0.7-1.6-1.6s0.7-1.6,1.6-1.6c0,0,0,0,0,0h45.2c0.9,0,1.6,0.7,1.6,1.6
	C365.2,198.5,364.5,199.2,363.6,199.2z"/>
<path class="st2" d="M400.4,182.5h-81.9c-0.9,0-1.6-0.7-1.6-1.6s0.7-1.6,1.6-1.6c0,0,0,0,0,0h81.9c0.9,0,1.6,0.7,1.6,1.6
	C401.9,181.8,401.2,182.5,400.4,182.5z"/>
<path class="st0" d="M504.1,339.4c0.6,0.6,0.5,1.6-0.1,2.1c-0.6,0.5-1.5,0.5-2,0c-9.2-7.9-18.4-15.8-27.6-23.7
	c-6.4-5.5-13.6-13.7-22.7-13.4c-13.6,0.5-26.5,5.2-39.9,5.8c-22.6,1-46.9,8.8-67.3-5c-5.2-3.5-10.3-7.5-13-13.6
	c-5.8-13.5-4.9-28.4-4.9-42.8c1-10.6,8-21.1,16-28.5c12-11.1,30.1-11.4,45.5-11.7c18.4-0.4,36.8,0.4,55,2.4
	c14.9,1.6,30.6,3.2,44.4,9.6c6,2.6,11.3,6.6,15.5,11.6c4.6,6,7.3,13.3,7.5,20.9c0.7,16.1-6.6,30.8-10.6,46
	C496.5,312.3,494.6,328.3,504.1,339.4z"/>
<path class="st1" d="M466.6,311.6c12.4,10.7,24.9,21.3,37.3,32c0.6,0.6,1.6,0.5,2.1-0.1c0.5-0.6,0.5-1.5,0-2
	c-9.5-11.2-7.6-27.1-4.1-40.3c4-15.2,11.3-29.9,10.6-46c-0.2-7.6-2.9-14.9-7.5-20.9c-4.2-5-9.5-9-15.5-11.6
	c-13.8-6.4-29.4-7.9-44.4-9.6c-18.3-2-36.6-2.8-55-2.4c-15.4,0.3-33.5,0.6-45.5,11.7c-11,10.1-12.5,26.1-12.4,40.1
	c0.1,8.1,0.2,16.5,2.2,24.5c1.8,7.5,5.8,14.8,12.9,18.5c6.8,3.6,14.9,3.6,22.5,3.6c9.3,0,18.5-0.7,27.7-2c18.3-2.4,36.5-6.3,55-7.4
	c4.5-0.3,9.1-0.4,13.6-0.3c1.9,0,1.9-3,0-3c-18-0.4-35.8,2.7-53.5,5.5c-17.1,2.7-34.6,5.3-52,3.9c-3.8-0.2-7.6-1-11-2.6
	c-3.4-1.6-6.2-4.1-8.3-7.3c-4.5-7-5.4-15.9-5.8-24.1c-0.4-7.1-0.4-14.2,0.2-21.3c0.7-6.9,2.3-13.9,5.9-19.8
	c5.4-8.8,21.7-13.9,31.3-15.3c7.6-1.1,14.5-2.1,22.2-2.1c8.7,0,17.4,0.7,25.9,1.6c7.1,0.8,13.4-0.1,20.4,0.5
	c4.2,0.4,8.5,0.5,12.6,0.9c9,0.9,18.8,3.7,27.4,6.3c6.2,1.9,11.9,4.9,16.9,9c5.3,4.4,8.9,10.5,10.4,17.2c3.4,15.5-3.4,30.9-7.9,45.4
	c-4,12.9-7.5,28-2,41c1.3,3,3,5.8,5.1,8.3l2.1-2.1c-12.4-10.7-24.9-21.3-37.3-32C467.3,308.2,465.1,310.3,466.6,311.6z"/>
<path class="st2" d="M413.6,241.8h-45.2c-0.9,0-1.6-0.7-1.6-1.6s0.7-1.6,1.6-1.6c0,0,0,0,0,0h45.2c0.9,0,1.6,0.7,1.6,1.6
	C415.2,241.1,414.5,241.8,413.6,241.8z"/>
<path class="st2" d="M413.6,275.2h-45.2c-0.9,0-1.6-0.7-1.6-1.6s0.7-1.6,1.6-1.6c0,0,0,0,0,0h45.2c0.9,0,1.6,0.7,1.6,1.6
	C415.2,274.5,414.5,275.2,413.6,275.2z"/>
<path class="st2" d="M450.4,258.5h-81.9c-0.9,0-1.6-0.7-1.6-1.6s0.7-1.6,1.6-1.6c0,0,0,0,0,0h81.9c0.9,0,1.6,0.7,1.6,1.6
	C451.9,257.8,451.2,258.5,450.4,258.5z"/>
<polygon class="st3" points="552.9,436.7 560.1,443.4 590.1,418.3 579.5,408.4 "/>
<path class="st4" d="M566,465.9l-4-18.6l4.8-5.1l-2.6-2.2l-8.1-6.7l-2-1.7l-18.6,16.7l5.4,5.1l5.7-4.2l-2.3,7.4l14.3,13.4
	c1.8,1.7,4.6,1.6,6.2-0.2C565.9,468.8,566.3,467.3,566,465.9L566,465.9z"/>
<polygon class="st3" points="517.9,462.8 527.6,464.3 538.1,426.5 523.7,424.4 "/>
<path class="st4" d="M545.3,479.4l-13.9-13l1.1-7l-3.4-0.3l-10.5-1l-2.6-0.2l-5.8,24.3l7.3,1.1l2.4-6.7l2.3,7.4l19.4,2.9
	c2.4,0.4,4.7-1.3,5-3.7C546.8,481.9,546.3,480.4,545.3,479.4z"/>
<path class="st4" d="M611.7,194.8l28,50.1c0,0-1.2,103,2.5,106.8s7.1,7.2,3.7,7.2s-2.3,24.3-2.3,24.3l-62,48l-15-12l37.6-46.4
	l-20.8-95.1c0,0-14.9,89.9-17.6,92.6s-4.3,2.7-1.5,5.4s0,8.8,0,8.8l-29.5,61.2l-16-2c0,0,2.8-50,12.4-71.4V270.8
	c-0.7,8.7,33.3-79.3,12.5-72.7C550.4,196,611.7,194.8,611.7,194.8z"/>
<path class="st5" d="M598.8,75.5h-23.1l-3.3,13.1l-17.8,4.9c0,0-8.8,58.3-1.4,63s2.2,19.4,2.2,19.4s-18.4,19.9-16.2,22.8
	s6.7-1.5,1.5,3.6s-8.1,4.4-6.6,5.9c0.9,0.9,1.6,2,2.1,3.3l-6.3,16.5c0,0,33.7,6.7,50.6-2.9s54.4,8.8,54.4,8.8s-1.9-9.7-3.5-11.1
	s-5.4,2.2-2.7-2.6s4.8-2.5,2.6-4.7s-11.8-31.6-11.8-31.6s-7.4-16.2,0.7-22.8s11.2-28.3,11.2-28.3l-9.7-39.4l-16.2-3.6L598.8,75.5z"
	/>
<path class="st3" d="M507.4,225.7l5.6-22.2l-12.3-4.9l-5,23.7c-3.4,2.5-4.1,7.3-1.6,10.7c2.5,3.4,7.3,4.1,10.7,1.6
	C507.5,232.6,508.6,228.9,507.4,225.7L507.4,225.7z"/>
<path class="st5" d="M561.3,92l-0.4-0.1c-6.9-1.2-14,1.1-18.9,6.1c-6.3,6.5-34.3,54.5-33.3,62.6c0.9,7.5,1.3,5.8-2.1,9.7
	s-4.7-2-4.8,6s3,7.9-0.2,9.8s-5.4,0.6-4.8,6s-0.3,6.8-0.5,8.7s-4.8,13.9-4.8,13.9s13.7,3.7,19.2,9.2c0,0,0.6-13.6,3.4-14.8
	s5.4-0.6,4.6-4.1s-4.8-5,0.1-4.9s12.5-26,12.5-26l32.9-60L561.3,92z"/>
<path class="st3" d="M635.5,236.8l1-22.9l13.2-1.3l-1.9,24.2c2.6,3.4,1.9,8.2-1.5,10.7c-3.4,2.6-8.2,1.9-10.7-1.5
	C633.4,243.3,633.4,239.5,635.5,236.8L635.5,236.8z"/>
<path class="st5" d="M621.7,93.2l0.4,0c7,0.8,13.1,5,16.3,11.2c4.2,8,17.5,62,14.2,69.4c-3,6.9-2.9,5.2-0.7,9.9s5.1-0.6,2.9,7.1
	s-5.1,6.7-2.6,9.5s5,2.1,2.9,7.1s-1.6,6.6-2,8.5s0.7,14.7,0.7,14.7s-14.1-0.4-21,3.3c0,0,3.3-13.2,0.9-15.2s-5-2.1-3.2-5.2
	s6-3.5,1.3-4.8s-4.6-28.5-4.6-28.5l-14.5-66.8L621.7,93.2z"/>
<path class="st4" d="M534.8,60c-0.2,7.9,2.8,15.5,7,22.2c1.4-3.9,3.4-7.6,5.9-10.9c-1.2,7.4,0.1,14.9,3.6,21.4
	c0.1,0.1,0.3,0.2,0.4,0.2c3.5,2.1,7.8,2.9,11.6,1.4c-7.7-8.3-8.7-22.1-2.2-31.4c1.8-2.6,4.2-5,5.3-8c1.8-4.8,0.1-10.1-1-15.1
	c-1-4.7-1.2-10.2,1.9-13.6c-0.7-1-1.8-1.5-3-1.4c-1.9,0.3-3.3,1.9-4.2,3.7c-0.9,1.7-1.5,3.6-2.7,5.1c-2.3,2.8-6.2,3.5-9.6,4.9
	C539.7,42.2,535,51.3,534.8,60z"/>
<path class="st4" d="M602.3,55.5c-0.5-1.6,2.7,8.2,1.2,8.4c-6.9,0.8-16.5,4.9-21.3,6.9c-0.2,0-0.4-0.1-0.6-0.1
	c-0.5-0.1-1-0.1-1.5-0.2c-11.3-2.1-15.6-19.4-15.6-19.6c0-0.8,1.9-22.1,4.8-22.5c0.8-0.1,1.5-0.1,2.3-0.1h7.3c1.5-0.3,3-0.5,4.6-0.7
	h0c14.7-1.1,26.3,7.8,25.2,18.7c0,0,0,0,0,0c-0.3,0.5-0.6,0.9-0.8,1.3c-0.2,0.4-0.4,0.8-0.6,1.1c-1.3,2.8,2.1,6.3-0.2,6.9
	c-3,0.9,8,29.4-4,29.4C608.8,86.9,603.6,59.9,602.3,55.5z"/>
<circle class="st3" cx="589.2" cy="55" r="17.3"/>
<path class="st4" d="M608.6,47.3c-0.3,0.2-0.6,0.3-0.9,0.4c-0.3,0.1-0.6,0.3-0.9,0.4c-5.8,2.6-10.5,2.9-13.4-0.9
	c-0.1-2-0.5-3.9-1.3-5.8c0.1,2-0.4,4.1-1.5,5.8h-5.8c-5.9,3.9-9,4.3-4.9,17.3c1.1,3.6,5.7,24.5,3.9,27.6c-0.5-0.1-6-23-6.5-23.1
	C566.2,67,559,48.4,559.9,47.4c0-3,0.7-5.9,2-8.6c1.7-3.4,4.3-6.2,7.5-8.2c1.9-0.9,3.9-1.7,6-2.3c0.1,0,0.1,0,0.1,0
	c0.6-0.2,1.3-0.3,1.9-0.5c1.3-0.3,2.7-0.5,4-0.6c0.1,0,0.2,0,0.3,0c0.5,0,1.1,0.1,1.5,0.4c0,0,0,0,0,0c0.3,0.2,0.6,0.5,0.9,0.8
	c0.4,0.5,0.6,1.2,0.6,1.8h6.4c0.2,0,0.5,0,0.7,0c8.9,0.3,16,7.3,16.6,16.1C608.6,46.7,608.6,47,608.6,47.3z"/>
<circle class="st4" cx="570.8" cy="30.4" r="11.4"/>
<path class="st6" d="M639,231.5c1.4,1.5-0.7,3.4-2.3,2.1c-13.5-10.5-27.1-21-40.6-31.5c0,0,0,0-0.1,0c-0.9-0.6-1.8-1.3-2.7-2.1
	c-12.6-1.3-26.4-5.7-39.6-7.6c-11.6,1.6-23.1,3.4-34.7,4.8c-10.1,1.3-20.3,1.9-30.5,2c-8.3,0-17.3-0.1-24.8-3.6
	c-7.8-3.7-12.2-11-14.2-18.4c-1-3.8-1.6-7.7-1.9-11.6v-24.4c1.1-10.6,4.3-21.1,13.2-28.5c13.3-11.1,33.2-11.4,50.2-11.7
	c20.3-0.4,40.6,0.4,60.8,2.4c16.4,1.6,33.7,3.2,49,9.6c6.5,2.7,12.7,6.5,17.2,11.6c5.1,5.8,8,13.2,8.3,20.8
	c0.8,16.1-7.3,30.8-11.7,45.9C630.7,204.4,628.5,220.3,639,231.5z"/>
<path class="st2" d="M538.6,127.8h-45.2c-0.9,0-1.6-0.7-1.6-1.6s0.7-1.6,1.6-1.6c0,0,0,0,0,0h45.2c0.9,0,1.6,0.7,1.6,1.6
	C540.2,127.1,539.5,127.8,538.6,127.8z"/>
<path class="st2" d="M538.6,161.2h-45.2c-0.9,0-1.6-0.7-1.6-1.6s0.7-1.6,1.6-1.6c0,0,0,0,0,0h45.2c0.9,0,1.6,0.7,1.6,1.6
	C540.2,160.5,539.5,161.2,538.6,161.2z"/>
<path class="st2" d="M575.4,144.5h-81.9c-0.9,0-1.6-0.7-1.6-1.6s0.7-1.6,1.6-1.6c0,0,0,0,0,0h81.9c0.9,0,1.6,0.7,1.6,1.6
	C576.9,143.8,576.2,144.5,575.4,144.5z"/>
<path class="st1" d="M649.3,128.9c4.2,6.7,6.6,14.4,5.8,22.3c-0.6,6.8-3.4,13.3-6.5,19.4c-3.2,6.3-6.7,12.4-9.3,19
	c-2.9,7.2-3.9,14.9-3.1,22.6c0.5,5,1.5,9.9,2.5,14.8l2.9,15l2.5-1.5l-41.5-35.9c-1.5-1.3-3.6,0.9-2.1,2.1l41.5,35.9
	c0.6,0.6,1.6,0.5,2.1-0.1c0.3-0.4,0.5-0.9,0.4-1.4c-1.7-8.8-3.7-17.6-4.9-26.5c-0.7-4.5-0.8-9-0.3-13.5c0.5-3.4,1.4-6.8,2.7-10
	c5-13,14.3-24.4,16.1-38.5c1.1-8.9-1.4-17.7-6.1-25.1C650.9,125.8,648.3,127.3,649.3,128.9L649.3,128.9z"/>
<path class="st1" d="M605.2,191.4l-61.3,7.3l-30.7,3.6c-9.3,1.1-19.1,2.7-28.4,0.7c-15.7-3.3-25.5-17.5-28.5-32.5
	c-1.9-9.3-1.2-19,0.4-28.3c0.9-4.9,2-9.8,3.2-14.7c1.1-4.3,1.9-9,3.8-13.1c3-6.7,9-11.7,16.1-13.6c2.2-0.5,4.4-0.7,6.7-0.9
	c2.5-0.3,5-0.5,7.6-0.7c5.1-0.4,10.1-0.8,15.2-1c2.5-0.1,5.1-0.2,7.6-0.3c1.9-0.1,1.9-3.1,0-3c-10.5,0.4-21.1,1.1-31.6,2.2
	c-4.3,0.4-8.2,1.1-12.1,3.1c-3.3,1.7-6.3,4.2-8.6,7.1c-2.4,3.1-4.1,6.6-5.2,10.3c-1.4,5-2.6,10-3.8,15c-2.3,10.1-4,20.6-3.2,31
	c1.1,15.4,8.5,31.9,22.8,39.2c8.5,4.3,18.1,4.5,27.4,3.7c10.3-0.9,20.6-2.4,31-3.6l63.8-7.5l7.9-0.9
	C607.1,194.2,607.1,191.2,605.2,191.4L605.2,191.4z"/>
</svg>
